<?xml version="1.0" encoding="UTF-8"?> <svg xmlns="http://www.w3.org/2000/svg" xmlns:xlink="http://www.w3.org/1999/xlink" xmlns:xodm="http://www.corel.com/coreldraw/odm/2003" xml:space="preserve" width="210mm" height="100mm" version="1.1" style="shape-rendering:geometricPrecision; text-rendering:geometricPrecision; image-rendering:optimizeQuality; fill-rule:evenodd; clip-rule:evenodd" viewBox="0 0 21000 10000"> <defs> <style type="text/css"> .fil0 {fill:#006ED2} </style> </defs> <g id="Capa_x0020_1"> <metadata id="CorelCorpID_0Corel-Layer"></metadata> <path class="fil0" d="M13394.65 6310.68l-989.15 -519.3c-123.65,-74.21 -271.99,-24.77 -370.97,74.21 -49.44,74.21 -123.65,123.66 -148.42,173.1 -296.76,296.76 -642.95,445.18 -1063.37,445.18 -840.82,0 -1310.67,-642.95 -1310.67,-1310.68 0,-840.82 766.61,-1632.2 1656.87,-1632.2 445.18,0 791.38,197.87 1038.69,494.63 74.22,98.88 222.55,123.65 346.2,74.21 296.76,-173.2 1112.81,-568.84 1137.58,-593.61 24.77,-24.77 24.77,-49.44 24.77,-74.21 -24.77,0 -24.77,-49.44 -24.77,-49.44 -445.18,-791.38 -1310.68,-1360.12 -2374.04,-1360.12 -1854.75,0 -3387.96,1582.66 -3387.96,3338.52 0,1459.01 1137.57,2596.58 2670.79,2596.58 1137.58,0 2176.18,-618.28 2794.45,-1533.22 0,-24.77 24.77,-49.44 49.45,-74.21 0,-24.67 0,-49.44 -49.45,-49.44zm5366.27 -4129.9c0,-98.89 -74.21,-148.43 -173.1,-148.43l-1978.4 0c-98.88,0 -197.86,49.45 -247.31,148.43l-2967.46 5539.46c-24.76,24.77 0,74.21 49.45,74.21l1384.89 0c98.88,0 197.86,-49.44 247.31,-148.42l2250.38 -4228.79 74.12 0.1 247.31 2077.28c0,24.77 -24.76,49.45 -49.44,49.45l-791.38 0c-222.54,0 -321.52,271.98 -148.42,420.41l890.26 791.38c173.1,148.42 296.76,370.96 321.53,618.28l24.77 271.98c0,98.89 74.21,148.43 173.09,148.43l1384.89 -0.1c24.77,0 49.45,-24.76 49.45,-49.44l-741.94 -5564.23zm-12785.15 2819.22c-98.88,816.05 -766.6,1483.78 -1582.66,1483.78 -816.05,0 -1409.56,-667.73 -1310.67,-1483.78 98.88,-816.05 840.82,-1483.78 1656.87,-1483.78 840.73,0 1335.35,667.73 1236.46,1483.78zm-1063.36 -2967.55c-1681.64,0 -3190.19,1335.35 -3387.96,2967.55 -197.87,1632.2 989.15,2967.55 2670.79,2967.55 1681.65,0 3190.1,-1335.44 3387.97,-2967.55 197.77,-1632.2 -989.25,-2967.55 -2670.8,-2967.55z"></path> </g> </svg> 